<?xml version="1.0" encoding="UTF-8" standalone="no"?><!-- Generator: Gravit.io --><svg xmlns="http://www.w3.org/2000/svg" xmlns:xlink="http://www.w3.org/1999/xlink" style="isolation:isolate" viewBox="0 0 400 300" width="400pt" height="300pt"><defs><clipPath id="_clipPath_ghGV0yZsRuqXn9zMkrz5lfRGJBkHSYhY"><rect width="400" height="300"/></clipPath></defs><g clip-path="url(#_clipPath_ghGV0yZsRuqXn9zMkrz5lfRGJBkHSYhY)"><path d=" M 176.313 121 C 175.927 121.073 175.62 121.367 175.531 121.75 C 175.531 121.75 175 123.918 175 128 L 175 164 C 175 165.645 176.355 167 178 167 L 200 167 C 201.645 167 203 165.645 203 164 L 203 159.5 C 203 159.285 203.285 159 203.5 159 C 207.238 159 210.41 157.332 212.594 154.687 C 214.777 152.044 216 148.453 216 144.5 L 216 140.906 C 216.004 138.543 215.067 136.275 213.396 134.604 C 211.725 132.933 209.457 131.996 207.094 132 L 206.094 132 C 204.437 132 203 130.656 203 128.906 L 203 128 C 203 123.918 202.469 121.75 202.469 121.75 C 202.355 121.308 201.956 121 201.5 121 L 176.312 121 L 176.313 121 Z  M 177.406 123 L 200.594 123 C 200.687 123.422 201 124.594 201 128 L 201 129 L 177 129 L 177 128 C 177 124.594 177.313 123.422 177.406 123 Z  M 177 130.813 C 177.3 130.813 177.7 130.906 178 130.906 C 178.602 131.106 179.195 131.414 179.594 131.812 C 179.594 131.812 179.688 131.805 179.688 131.906 L 180 132.187 L 180.188 132.407 C 180.289 132.507 180.305 132.586 180.406 132.687 C 180.508 132.789 180.492 132.898 180.594 133 C 180.594 133.102 180.688 133.21 180.688 133.313 C 180.789 133.414 180.812 133.586 180.812 133.687 C 180.812 133.789 180.805 133.898 180.906 134 C 180.906 134.2 181 134.488 181 134.688 C 181 134.887 181.008 135.207 180.906 135.406 C 180.906 135.508 180.914 135.586 180.812 135.688 C 180.812 135.887 180.688 135.992 180.688 136.094 C 180.688 136.195 180.594 136.304 180.594 136.406 C 180.492 136.508 180.508 136.586 180.406 136.688 C 180.305 136.789 180.289 136.898 180.187 137 L 179.687 137.5 C 179.687 137.5 179.594 137.492 179.594 137.594 C 179.094 137.992 178.602 138.301 178 138.5 C 177.7 138.602 177.3 138.594 177 138.594 L 177 137 C 177.398 137 177.7 136.887 178 136.687 C 178.3 136.488 178.488 136.301 178.688 136 L 178.688 135.906 C 178.789 135.805 178.805 135.699 178.906 135.5 L 178.906 135.406 C 178.906 135.207 179 135.106 179 134.906 C 179 134.707 179.008 134.606 178.906 134.406 L 178.906 134.312 C 178.906 134.211 178.789 134.105 178.687 133.906 L 178.687 133.812 C 178.488 133.512 178.301 133.293 178 133.094 C 177.7 132.894 177.398 132.813 177 132.813 L 177 130.813 Z  M 189 131 C 191.2 131 193 132.8 193 135 C 193 137.2 191.2 139 189 139 C 186.8 139 185 137.2 185 135 C 185 132.8 186.8 131 189 131 Z  M 200.5 131.406 C 200.676 131.395 200.852 131.406 201 131.406 L 201 133 C 200.602 133 200.3 133.113 200 133.313 C 199.7 133.512 199.512 133.699 199.312 134 L 199.312 134.094 C 199.211 134.195 199.195 134.301 199.094 134.5 L 199.094 134.594 C 199.094 134.793 199 134.894 199 135.094 C 199 135.293 198.992 135.394 199.094 135.594 L 199.094 135.687 C 199.094 135.789 199.211 135.895 199.312 136.094 L 199.312 136.187 C 199.512 136.488 199.699 136.707 200 136.907 C 200.3 137.105 200.602 137.187 201 137.187 L 201 139.187 C 200.7 139.187 200.3 139.094 200 139.094 C 199.398 138.894 198.805 138.586 198.406 138.187 C 198.406 138.187 198.313 138.195 198.313 138.094 L 198 137.812 L 197.812 137.594 C 197.711 137.492 197.695 137.414 197.594 137.312 C 197.492 137.211 197.508 137.102 197.406 137 C 197.406 136.898 197.313 136.79 197.313 136.687 C 197.211 136.586 197.188 136.414 197.188 136.312 C 197.188 136.211 197.195 136.102 197.094 136 C 197.094 135.8 197 135.512 197 135.312 C 197 135.113 196.992 134.793 197.094 134.594 C 197.094 134.492 197.086 134.414 197.187 134.313 C 197.187 134.113 197.312 134.008 197.312 133.906 C 197.312 133.805 197.406 133.696 197.406 133.594 C 197.508 133.492 197.492 133.414 197.594 133.313 C 197.695 133.211 197.711 133.102 197.812 133 L 198.312 132.5 C 198.312 132.5 198.406 132.508 198.406 132.406 C 198.906 132.008 199.398 131.699 200 131.5 C 200.148 131.45 200.324 131.418 200.5 131.406 Z  M 203 132.906 C 203.871 133.582 204.938 134 206.094 134 L 207.094 134 C 210.964 134 214 137.035 214 140.906 L 214 144.5 C 214 148.047 212.906 151.207 211.062 153.438 C 209.22 155.667 206.66 157 203.5 157 C 203.328 157 203.164 157.027 203 157.063 L 203 154.813 C 203.32 154.933 203.658 154.996 204 155 C 206.547 155 208.836 153.652 210.438 151.5 C 212.038 149.348 213 146.387 213 143 L 213 141.406 C 212.998 137.869 210.131 135.002 206.594 135 L 205.406 135 C 204.551 135 203.715 135.25 203 135.719 L 203 132.906 Z  M 189 133 C 187.895 133 187 133.895 187 135 C 187 136.105 187.895 137 189 137 C 190.105 137 191 136.105 191 135 C 191 133.895 190.105 133 189 133 Z  M 205.406 137 L 206.594 137 C 207.766 136.989 208.893 137.45 209.721 138.279 C 210.55 139.107 211.011 140.234 211 141.406 L 211 143 C 211 146.012 210.145 148.566 208.844 150.313 C 207.543 152.059 205.852 153 204 153 C 203.445 153 203 152.555 203 152 L 203 139.406 C 203 138.031 204.031 137 205.406 137 Z  M 183 140 C 185.2 140 187 141.8 187 144 C 187 146.2 185.2 148 183 148 C 180.8 148 179 146.2 179 144 C 179 141.8 180.8 140 183 140 Z  M 195 140 C 197.2 140 199 141.8 199 144 C 199 146.2 197.2 148 195 148 C 192.8 148 191 146.2 191 144 C 191 141.8 192.8 140 195 140 Z  M 183 142 C 181.895 142 181 142.895 181 144 C 181 145.105 181.895 146 183 146 C 184.105 146 185 145.105 185 144 C 185 142.895 184.105 142 183 142 Z  M 195 142 C 193.895 142 193 142.895 193 144 C 193 145.105 193.895 146 195 146 C 196.105 146 197 145.105 197 144 C 197 142.895 196.105 142 195 142 Z  M 177 148.813 C 177.3 148.813 177.7 148.906 178 148.906 C 178.602 149.106 179.195 149.414 179.594 149.813 C 179.594 149.813 179.688 149.805 179.688 149.906 L 180 150.188 L 180.188 150.406 C 180.289 150.508 180.305 150.586 180.406 150.688 C 180.508 150.789 180.492 150.898 180.594 151 C 180.594 151.102 180.688 151.21 180.688 151.313 C 180.789 151.414 180.812 151.586 180.812 151.687 C 180.812 151.789 180.805 151.898 180.906 152 C 180.906 152.2 181 152.488 181 152.688 C 181 152.887 181.008 153.207 180.906 153.406 C 180.906 153.508 180.914 153.586 180.812 153.688 C 180.812 153.887 180.688 153.992 180.688 154.094 C 180.688 154.195 180.594 154.304 180.594 154.406 C 180.492 154.508 180.508 154.586 180.406 154.688 C 180.305 154.789 180.289 154.898 180.187 155 L 179.687 155.5 C 179.687 155.5 179.594 155.492 179.594 155.594 C 179.094 155.992 178.602 156.301 178 156.5 C 177.7 156.898 177.3 157 177 157 L 177 155 C 177.398 155 177.7 154.887 178 154.687 C 178.3 154.488 178.488 154.301 178.688 154 L 178.688 153.906 C 178.789 153.805 178.805 153.699 178.906 153.5 L 178.906 153.406 C 178.906 153.207 179 153.106 179 152.906 C 179 152.707 179.008 152.606 178.906 152.406 L 178.906 152.313 C 178.906 152.211 178.789 152.105 178.687 151.906 L 178.687 151.813 C 178.488 151.512 178.301 151.293 178 151.093 C 177.7 150.895 177.398 150.813 177 150.813 L 177 148.813 Z  M 189 149 C 191.2 149 193 150.8 193 153 C 193 155.2 191.2 157 189 157 C 186.8 157 185 155.2 185 153 C 185 150.8 186.8 149 189 149 Z  M 200.5 149.406 C 200.676 149.395 200.852 149.406 201 149.406 L 201 151 C 200.602 151 200.3 151.113 200 151.313 C 199.7 151.512 199.512 151.699 199.312 152 L 199.312 152.094 C 199.211 152.195 199.195 152.301 199.094 152.5 L 199.094 152.594 C 199.094 152.793 199 152.894 199 153.094 C 199 153.293 198.992 153.394 199.094 153.594 L 199.094 153.687 C 199.094 153.789 199.211 153.895 199.312 154.094 L 199.312 154.187 C 199.512 154.488 199.699 154.707 200 154.907 C 200.3 155.105 200.602 155.187 201 155.187 L 201 157.187 C 200.7 157.187 200.3 157.094 200 157.094 C 199.398 156.894 198.805 156.586 198.406 156.187 C 198.406 156.187 198.313 156.195 198.313 156.094 L 198 155.812 L 197.812 155.594 C 197.711 155.492 197.695 155.414 197.594 155.312 C 197.492 155.211 197.508 155.102 197.406 155 C 197.406 154.898 197.313 154.79 197.313 154.687 C 197.211 154.586 197.188 154.414 197.188 154.313 C 197.188 154.211 197.195 154.102 197.094 154 C 197.094 153.8 197 153.512 197 153.312 C 197 153.113 196.992 152.793 197.094 152.594 C 197.094 152.492 197.086 152.414 197.187 152.312 C 197.187 152.113 197.312 152.008 197.312 151.906 C 197.312 151.805 197.406 151.696 197.406 151.594 C 197.508 151.492 197.492 151.414 197.594 151.312 C 197.695 151.211 197.711 151.102 197.812 151 L 198.312 150.5 C 198.312 150.5 198.406 150.508 198.406 150.406 C 198.906 150.008 199.398 149.699 200 149.5 C 200.148 149.45 200.324 149.418 200.5 149.406 Z  M 189 151 C 187.895 151 187 151.895 187 153 C 187 154.105 187.895 155 189 155 C 190.105 155 191 154.105 191 153 C 191 151.895 190.105 151 189 151 Z  M 183.094 158 C 184.992 158 186.5 159.3 187 161 L 184.687 161 C 184.387 160.398 183.699 160 183 160 C 182.3 160 181.613 160.398 181.312 161 L 179.188 161 C 179.586 159.3 181.195 158 183.094 158 Z  M 195.094 158 C 196.992 158 198.5 159.3 199 161 L 196.687 161 C 196.387 160.398 195.699 160 195 160 C 194.3 160 193.613 160.398 193.312 161 L 191.187 161 C 191.586 159.3 193.195 158 195.094 158 Z  M 177 163 L 201 163 L 201 164 C 201 164.555 200.555 165 200 165 L 178 165 C 177.445 165 177 164.555 177 164 L 177 163 Z " fill="rgb(0,0,0)"/></g></svg>